<?xml version="1.0" standalone="no"?>
<!DOCTYPE svg PUBLIC "-//W3C//DTD SVG 20010904//EN"
 "http://www.w3.org/TR/2001/REC-SVG-20010904/DTD/svg10.dtd">
<svg version="1.0" xmlns="http://www.w3.org/2000/svg"
 width="1280.000000pt" height="1280.000000pt" viewBox="0 0 1280.000000 1280.000000"
 preserveAspectRatio="xMidYMid meet">
<metadata>
Created by potrace 1.14, written by Peter Selinger 2001-2017
</metadata>
<g transform="translate(0.000000,1280.000000) scale(0.100000,-0.100000)"
fill="#000000" stroke="none">
<path d="M0 6400 l0 -6400 6400 0 6400 0 0 6400 0 6400 -6400 0 -6400 0 0
-6400z m6567 5059 c15 -6 70 -19 121 -30 52 -10 98 -21 103 -24 4 -3 -10 -22
-32 -42 -22 -20 -38 -40 -36 -46 1 -5 25 -18 52 -29 28 -10 64 -25 82 -33 17
-8 38 -15 46 -15 9 0 19 -4 22 -10 10 -16 -6 -12 -124 29 l-112 38 -43 -61
c-24 -34 -46 -69 -50 -80 -4 -13 -11 -16 -24 -11 -63 27 -148 47 -217 52 l-81
6 -55 -69 c-78 -97 -130 -167 -254 -339 -60 -82 -135 -185 -167 -227 -69 -90
-288 -418 -288 -430 0 -5 24 3 53 17 198 97 811 405 897 451 187 100 314 163
319 159 2 -3 2 -7 0 -9 -9 -9 -371 -201 -544 -288 -99 -50 -270 -137 -380
-193 -110 -56 -247 -122 -304 -146 -88 -37 -109 -50 -133 -84 -65 -91 -262
-360 -388 -530 -74 -100 -158 -213 -185 -251 -28 -38 -91 -123 -141 -189 -141
-187 -410 -549 -494 -665 -78 -108 -192 -264 -575 -779 -255 -342 -360 -485
-435 -594 l-54 -78 24 -44 c24 -43 24 -46 12 -142 -15 -124 -15 -163 3 -298
14 -104 35 -308 55 -545 5 -58 18 -214 30 -348 11 -133 30 -327 40 -430 11
-103 19 -203 19 -222 -2 -51 -25 96 -44 275 -16 147 -19 182 -50 525 -9 96
-30 312 -48 480 -23 223 -32 355 -32 490 -1 228 -10 265 -50 203 -10 -16 -130
-179 -268 -363 -514 -687 -710 -954 -784 -1065 -61 -92 -59 -87 -21 -80 27 4
36 1 51 -20 23 -32 18 -39 -40 -55 -68 -18 -72 -27 -17 -35 99 -13 228 -36
233 -41 3 -3 -27 -34 -67 -70 -39 -36 -72 -72 -72 -79 0 -8 21 -16 57 -22 75
-11 73 -24 -13 -116 -64 -67 -71 -87 -33 -87 23 0 69 -45 69 -68 0 -8 -18 -32
-40 -54 -22 -22 -40 -42 -40 -44 0 -2 11 -4 24 -4 13 0 75 -18 138 -41 154
-56 420 -150 608 -214 85 -29 252 -88 370 -130 369 -131 475 -165 522 -165 57
0 248 34 311 56 26 9 50 14 53 12 17 -18 -289 -88 -381 -88 -41 0 -112 20
-302 86 -136 48 -376 130 -533 184 -157 53 -370 127 -475 163 -104 36 -226 77
-270 92 -44 14 -115 37 -157 51 -44 14 -87 23 -98 19 -37 -12 -21 17 49 86 87
86 194 216 187 228 -3 5 -19 14 -35 19 -26 9 -32 7 -68 -31 -22 -23 -67 -78
-100 -122 -102 -136 -123 -147 -198 -111 -27 14 -43 25 -34 25 9 1 24 10 34
21 10 11 25 20 33 20 13 0 13 -3 -1 -18 -10 -10 -17 -22 -17 -25 0 -13 28 -7
41 9 8 9 31 28 52 41 22 13 53 40 70 60 49 54 99 137 86 142 -6 2 -16 -2 -22
-8 -18 -18 -54 -13 -109 15 l-52 26 30 13 c28 12 27 13 -28 12 -56 -1 -88 13
-88 39 0 23 21 27 36 5 15 -21 49 -27 70 -13 7 4 22 26 34 50 12 23 28 42 36
42 16 0 16 -2 5 -52 l-9 -38 62 0 c33 0 68 -5 76 -11 13 -8 12 -12 -8 -26 -12
-8 -22 -22 -22 -30 0 -11 10 -7 35 14 82 65 110 92 103 98 -3 4 -46 16 -95 27
-48 11 -124 31 -168 43 -77 22 -79 24 -52 34 16 6 31 11 34 11 3 0 14 11 24
24 18 23 59 42 59 27 0 -5 -10 -13 -22 -19 -13 -6 -17 -11 -10 -11 28 -2 51
19 47 42 -8 39 90 184 462 682 393 526 600 806 659 891 93 134 269 376 455
625 85 113 192 259 239 323 47 65 121 166 165 224 45 59 110 148 145 197 95
134 368 503 680 920 152 204 308 413 346 465 39 52 110 149 159 215 48 66 92
126 98 133 16 21 1 25 -35 9 -157 -72 -219 -93 -205 -70 4 6 24 14 44 18 38 7
103 33 113 45 3 4 38 22 78 40 73 33 73 34 154 154 45 67 147 211 226 321 80
110 184 254 231 320 47 66 91 127 98 135 54 68 103 131 123 160 48 70 193 232
228 255 41 27 67 30 109 14z m-377 -28 c0 -6 -4 -13 -10 -16 -5 -3 -10 1 -10
9 0 9 5 16 10 16 6 0 10 -4 10 -9z m698 -53 c-4 -12 -108 -72 -114 -65 -4 4
97 74 109 76 5 0 7 -4 5 -11z m102 -22 c68 -15 100 -25 100 -33 0 -42 -80 -69
-175 -58 -36 3 -65 10 -65 14 0 3 13 12 29 18 20 7 31 20 36 42 3 17 7 31 8
31 1 0 31 -6 67 -14z m160 -111 c23 -28 145 -104 200 -124 54 -20 798 -207
921 -232 35 -7 57 -15 48 -17 -22 -4 -190 33 -554 124 -418 104 -444 113 -554
184 -52 33 -98 60 -102 60 -3 0 -23 -7 -42 -15 -53 -22 -58 -18 -12 9 47 28
78 32 95 11z m-730 -83 c0 -15 -59 -72 -75 -72 -20 0 -65 29 -65 42 0 6 7 7
15 4 8 -3 22 -9 30 -12 10 -4 15 0 15 10 0 12 6 15 25 10 18 -4 27 -1 31 10 6
16 24 22 24 8z m-499 -109 c-8 -15 -10 -15 -11 -2 0 17 10 32 18 25 2 -3 -1
-13 -7 -23z m-49 -72 c-18 -22 -32 -45 -32 -50 0 -6 -4 -11 -9 -11 -5 0 -13
-9 -16 -20 -7 -22 -35 -28 -35 -7 0 13 30 50 92 115 34 36 34 16 0 -27z m2613
-66 c-115 -24 -133 -26 -75 -5 30 10 73 19 95 18 37 0 35 -1 -20 -13z m197
-16 c70 -18 36 -17 -52 2 -55 13 -68 17 -36 14 27 -3 67 -10 88 -16z m-2898
-27 c2 -4 -8 -22 -22 -39 -15 -17 -45 -57 -67 -87 -22 -31 -42 -56 -46 -56 -4
0 -10 -11 -13 -25 -4 -14 -12 -25 -19 -25 -8 0 -20 -15 -28 -32 -15 -34 -49
-51 -49 -25 0 9 4 17 9 19 5 2 37 39 72 83 34 44 66 82 71 83 4 2 8 10 8 17 0
8 9 19 20 25 11 6 19 17 18 23 -3 13 21 46 34 47 4 0 9 -4 12 -8z m2736 -42
c95 -22 175 -40 178 -40 3 0 3 -3 0 -6 -6 -6 -301 60 -341 76 -39 15 -14 11
163 -30z m-2979 -286 c8 -9 9 -18 3 -22 -5 -4 -24 -30 -42 -58 -18 -29 -45
-65 -60 -80 -25 -28 -87 -97 -139 -157 -13 -15 -21 -32 -18 -36 2 -5 -2 -12
-11 -15 -8 -3 -12 -10 -9 -16 3 -6 -1 -13 -9 -16 -9 -3 -16 -12 -16 -20 0 -7
-9 -18 -20 -24 -32 -17 -25 8 20 70 22 30 44 65 50 78 5 12 14 22 20 22 5 0
10 6 10 13 0 7 9 18 20 25 11 7 20 19 20 27 0 8 4 15 8 15 5 0 17 15 27 34 11
19 27 37 37 39 11 3 16 11 13 19 -3 8 1 21 10 28 8 7 15 17 15 22 0 11 42 67
51 67 4 1 12 -6 20 -15z m3580 -156 c159 -84 612 -336 630 -350 16 -13 9 -11
-21 5 -25 14 -175 96 -335 181 -262 142 -321 176 -303 176 3 0 16 -6 29 -12z
m-3914 -324 c-3 -3 -12 -4 -19 -1 -8 3 -5 6 6 6 11 1 17 -2 13 -5z m-22 -34
c-3 -5 -10 -10 -16 -10 -5 0 -9 5 -9 10 0 6 7 10 16 10 8 0 12 -4 9 -10z
m4709 -102 c20 -155 72 -675 81 -808 4 -52 13 -160 21 -240 24 -245 24 -248
14 -218 -4 15 -16 105 -24 200 -9 95 -30 315 -46 488 -16 173 -37 378 -46 455
-17 150 -13 142 -86 198 -14 11 -4 8 29 -8 48 -23 52 -28 57 -67z m1659 -205
c-10 -15 -12 -24 -5 -20 6 5 12 4 12 -2 0 -5 -6 -14 -13 -18 -12 -8 -42 -52
-81 -118 -18 -29 -18 -30 0 -9 11 12 35 42 54 68 19 25 38 45 43 46 10 0 9
-34 -2 -45 -5 -6 -6 -32 -1 -60 11 -70 -1 -101 -82 -212 -48 -65 -37 -69 19
-7 27 30 40 40 37 27 -3 -12 -1 -24 5 -27 6 -4 11 -2 11 5 0 7 2 10 5 7 3 -3
-3 -32 -14 -66 -15 -49 -16 -59 -4 -55 11 4 13 -1 7 -23 -4 -16 -11 -34 -16
-41 -5 -7 -5 -12 2 -15 13 -4 -6 -57 -25 -70 -5 -4 -7 -10 -3 -13 3 -4 17 10
31 30 16 24 27 32 32 25 4 -7 -2 -24 -14 -38 -33 -43 -53 -82 -48 -100 3 -12
11 -3 25 27 l20 44 16 -38 c9 -20 16 -42 16 -48 0 -6 -24 -50 -54 -97 -67
-108 -206 -341 -206 -347 0 -3 -47 -82 -104 -176 -57 -95 -113 -191 -125 -215
-12 -24 -49 -88 -82 -143 -32 -55 -59 -101 -59 -104 0 -2 -20 -37 -44 -77 -48
-80 -247 -423 -291 -503 -16 -27 -42 -72 -59 -100 -17 -28 -36 -59 -43 -70
-27 -45 -64 -107 -135 -230 -81 -139 -147 -252 -230 -392 -28 -49 -67 -117
-86 -153 -19 -36 -54 -94 -77 -130 -46 -70 -63 -99 -134 -227 -25 -46 -78
-138 -117 -205 -216 -375 -415 -720 -444 -773 -18 -33 -44 -77 -57 -98 -13
-21 -33 -55 -45 -75 -60 -109 -126 -225 -166 -292 -25 -41 -65 -111 -90 -155
-24 -44 -82 -144 -129 -223 -46 -78 -108 -184 -137 -235 -29 -50 -93 -162
-143 -247 -49 -85 -104 -181 -121 -213 -17 -31 -74 -128 -125 -215 -51 -86
-118 -200 -147 -252 -29 -52 -65 -113 -80 -135 -15 -22 -42 -67 -60 -100 -147
-266 -361 -613 -479 -775 -22 -30 -72 -102 -112 -160 -40 -58 -78 -109 -86
-113 -7 -4 -13 -14 -13 -22 0 -20 -69 -47 -100 -40 -14 4 -108 39 -210 80
-102 40 -306 121 -455 179 -148 59 -306 122 -350 141 -44 19 -125 52 -180 73
-148 58 -537 215 -635 257 -47 20 -227 94 -400 164 -173 71 -400 163 -505 206
-371 151 -561 227 -655 262 -278 103 -530 201 -1520 593 -124 49 -261 102
-305 119 -98 36 -194 80 -178 80 7 1 35 -8 63 -19 27 -11 50 -17 50 -14 0 4 6
2 13 -4 15 -13 149 -62 168 -62 23 0 -16 32 -58 47 -76 28 -123 41 -123 35 0
-4 -4 -2 -8 4 -4 6 -45 25 -92 43 -234 88 -472 185 -461 189 12 4 147 -36 166
-49 6 -4 26 -11 45 -17 32 -8 37 -7 47 14 10 21 9 24 -7 24 -11 0 -22 -4 -25
-10 -3 -5 -16 -10 -28 -9 l-22 0 23 9 c32 13 29 32 -4 20 -35 -14 -41 -12 -18
5 11 9 14 15 7 16 -24 3 -28 5 -55 23 -16 10 -35 15 -45 12 -10 -4 -14 -4 -10
0 4 4 -12 16 -35 26 -22 10 -39 21 -36 23 4 5 86 -13 153 -32 17 -5 18 -4 6
11 -17 20 -10 20 37 0 20 -10 42 -18 47 -20 6 -1 19 -6 30 -10 18 -7 18 -6 6
9 -7 9 -20 17 -27 17 -8 0 -31 9 -51 20 -21 11 -43 20 -48 20 -6 0 -35 11 -63
25 -29 14 -55 25 -58 25 -3 0 -18 10 -32 21 l-27 22 39 -7 c21 -4 48 -14 60
-21 12 -8 64 -30 116 -50 52 -20 99 -41 104 -46 6 -5 21 -9 35 -9 18 0 1 12
-57 40 -46 22 -89 40 -97 40 -8 0 -16 4 -19 9 -3 4 -19 11 -36 15 -17 3 -41
16 -54 29 -13 13 -37 29 -55 36 -17 8 -31 17 -31 21 0 4 -14 11 -32 16 -17 5
-33 14 -35 21 -2 6 31 -2 74 -19 43 -16 88 -32 101 -35 12 -3 22 -9 22 -14 0
-5 6 -9 13 -9 8 0 28 -7 45 -16 18 -8 56 -17 86 -19 29 -1 69 -10 87 -18 54
-25 127 -47 157 -48 23 0 24 -2 7 -8 -19 -8 -18 -9 63 -27 8 -1 22 -10 31 -18
10 -9 22 -16 27 -16 5 0 -2 9 -16 20 -21 17 -23 21 -10 31 11 8 8 9 -16 4 -23
-4 -33 -2 -37 9 -9 23 -108 64 -145 60 -26 -3 -30 -1 -25 13 5 13 2 15 -15 11
-16 -5 -19 -2 -15 11 5 13 3 14 -8 4 -7 -7 -20 -13 -28 -13 -14 0 -14 1 -1 10
12 8 10 10 -8 10 -13 0 -21 4 -18 9 3 4 -14 14 -37 21 -23 6 -47 16 -53 21 -6
5 -56 25 -111 43 -83 29 -206 80 -222 93 -2 2 -2 6 1 9 3 3 50 -12 104 -32
110 -41 246 -85 251 -81 3 3 -93 48 -177 82 -25 10 -49 22 -54 27 -18 15 22 8
75 -12 29 -12 58 -19 65 -16 22 8 124 -25 124 -41 0 -10 6 -12 20 -8 11 3 28
1 37 -5 15 -9 14 -10 -7 -5 -22 5 -23 4 -7 -5 10 -7 25 -9 34 -6 8 3 35 -3 60
-14 25 -11 51 -20 58 -20 7 0 18 -7 25 -15 15 -18 -1 -20 -18 -3 -6 6 -15 9
-18 5 -4 -3 6 -11 22 -18 16 -6 38 -15 49 -20 11 -4 37 -13 57 -19 21 -6 40
-16 43 -21 4 -5 13 -9 21 -9 8 0 36 -9 61 -21 36 -16 47 -18 54 -8 5 9 11 10
21 2 7 -6 26 -13 41 -17 15 -4 25 -10 22 -15 -7 -12 21 -22 42 -14 11 4 14 3
9 -5 -4 -7 -1 -12 8 -12 9 0 40 -11 70 -25 30 -14 61 -25 70 -25 8 0 18 -4 21
-10 3 -5 25 -14 48 -20 23 -6 65 -21 92 -34 28 -13 86 -37 130 -54 44 -17 177
-69 295 -116 211 -83 425 -160 765 -276 169 -58 208 -72 420 -148 135 -49 374
-145 580 -233 105 -44 259 -98 470 -164 186 -58 205 -65 445 -160 199 -80 512
-198 700 -265 58 -21 141 -55 185 -75 44 -21 154 -67 245 -102 91 -35 201 -82
245 -104 45 -21 85 -39 90 -39 5 0 19 10 32 22 l23 22 -3 -33 c-2 -18 -13 -41
-24 -52 l-20 -20 -51 24 c-28 13 -62 27 -77 31 -15 4 -40 16 -56 28 -16 12
-32 19 -36 15 -3 -4 -1 -7 5 -7 7 0 12 -4 12 -9 0 -5 -39 3 -87 19 -49 15
-124 38 -168 50 -44 12 -84 26 -90 30 -5 5 -13 8 -18 8 -26 1 -67 16 -83 30
-28 26 -161 88 -271 126 -54 18 -165 59 -247 91 -83 32 -170 64 -195 71 -26 7
-98 32 -161 57 -63 24 -148 55 -187 68 -40 12 -73 27 -73 31 0 13 24 9 63 -11
20 -10 53 -22 73 -26 20 -3 44 -11 53 -16 19 -10 76 -32 181 -66 41 -14 84
-29 95 -33 88 -35 157 -60 167 -60 19 0 -3 15 -42 29 -19 7 -48 19 -65 27 -55
25 -449 164 -550 194 -33 10 -100 32 -150 49 -49 17 -137 45 -195 62 -58 17
-130 40 -160 50 -55 19 -74 25 -245 72 -49 14 -107 33 -129 42 -21 9 -40 14
-43 11 -7 -7 65 -36 104 -43 18 -3 38 -12 44 -19 6 -8 27 -14 45 -14 21 0 42
-8 54 -20 15 -15 27 -19 48 -13 25 6 26 5 12 -12 -14 -17 -14 -18 7 -7 13 7
24 8 27 3 4 -5 1 -11 -5 -13 -21 -7 310 -130 334 -123 15 4 18 3 8 -3 -19 -13
3 -25 32 -17 15 4 18 3 9 -3 -9 -6 -1 -13 30 -25 58 -22 71 -21 28 3 -50 27
-36 25 71 -14 256 -92 347 -131 327 -140 -7 -3 -1 -4 14 -1 21 4 26 2 22 -9
-6 -15 44 -29 73 -20 14 4 15 3 5 -4 -10 -7 9 -17 68 -36 44 -15 111 -41 148
-57 105 -48 243 -102 424 -169 93 -34 168 -66 168 -72 0 -5 10 -6 23 -3 17 5
19 4 7 -4 -12 -8 -8 -11 17 -11 17 0 38 -6 45 -13 7 -7 49 -25 93 -39 105 -35
300 -104 311 -110 5 -3 41 -11 79 -18 74 -14 98 -26 74 -35 -17 -6 -95 13
-182 45 -31 12 -63 20 -69 18 -7 -3 8 -11 33 -20 24 -9 69 -26 99 -38 30 -12
64 -24 75 -27 11 -2 30 -10 43 -16 24 -12 25 -11 79 68 15 22 50 72 78 110 28
39 74 111 101 160 27 50 54 99 61 110 7 11 16 29 21 40 51 110 196 372 275
497 34 54 73 117 87 142 67 118 150 249 162 254 4 2 4 10 1 19 -4 11 -2 14 5
9 8 -5 12 1 12 15 0 13 24 63 54 113 51 87 118 208 201 361 21 39 46 81 55 95
10 14 56 93 102 175 47 83 117 206 158 275 40 69 101 177 135 240 82 152 204
361 223 383 8 9 11 17 6 17 -5 0 5 13 21 28 17 15 25 23 18 18 -17 -11 -16 -2
2 35 9 16 20 27 24 24 5 -3 7 5 3 17 -3 14 -2 19 6 14 8 -5 12 1 12 14 0 12 4
18 10 15 6 -4 7 1 3 11 -5 13 -3 16 9 11 11 -4 18 1 21 14 3 10 1 17 -4 13 -5
-3 -9 -2 -9 2 0 9 67 130 90 164 10 14 48 84 85 155 104 200 220 407 280 501
30 46 55 88 55 92 0 4 22 43 48 87 26 44 65 114 86 155 22 41 49 91 61 110 12
19 38 64 57 100 37 69 162 290 268 475 73 127 131 219 142 223 5 2 8 9 8 16 0
15 104 207 252 464 55 97 117 206 136 242 19 36 56 103 82 150 26 47 64 117
85 155 21 39 52 95 70 125 88 150 122 211 155 275 20 39 57 104 82 145 25 41
77 134 117 205 39 72 105 186 146 255 41 69 101 170 132 225 l58 100 3 -42 c2
-28 -3 -51 -15 -70z m-6079 -374 c88 -28 211 -64 271 -79 158 -41 227 -65 342
-120 162 -77 241 -137 345 -264 58 -71 117 -179 137 -251 29 -106 -3 -282 -60
-336 -36 -34 -36 -41 -1 -34 17 3 14 0 -8 -6 -19 -6 -60 -19 -91 -30 -30 -10
-100 -29 -155 -43 -54 -14 -119 -32 -143 -41 -24 -8 -47 -13 -49 -10 -3 3 26
36 65 74 131 127 211 306 215 481 4 160 -99 312 -270 399 -81 41 -329 121
-377 121 -23 0 -55 -41 -70 -91 -4 -13 -19 -37 -35 -54 -15 -16 -49 -64 -76
-105 -27 -41 -69 -102 -94 -135 -25 -34 -76 -105 -115 -158 -38 -53 -141 -190
-228 -304 -173 -229 -218 -303 -201 -331 24 -38 366 -102 544 -102 183 0 344
37 535 122 67 30 195 67 505 144 426 106 445 111 640 187 197 76 324 148 477
273 87 71 171 124 196 124 13 0 31 -6 42 -14 17 -12 13 -17 -51 -58 -38 -25
-165 -126 -282 -224 -235 -199 -275 -227 -413 -283 -151 -61 -207 -78 -529
-161 -862 -223 -1237 -240 -1760 -84 -222 67 -445 145 -457 162 -28 36 -17 39
105 34 183 -7 263 21 353 123 20 22 116 148 215 279 359 479 394 535 394 628
l0 56 -60 52 c-40 35 -60 59 -60 74 0 48 6 48 204 -15z m1628 -343 c242 -72
355 -136 402 -228 20 -40 27 -64 22 -83 -7 -29 -84 -88 -239 -182 -131 -80
-159 -85 -89 -15 79 80 142 198 142 269 0 113 -125 190 -299 181 -123 -6 -215
-64 -342 -218 -35 -41 -67 -75 -73 -75 -20 0 -18 42 3 76 12 19 21 40 21 48 0
24 86 195 108 214 59 52 193 57 344 13z m2968 -491 c7 -22 25 -63 41 -91 29
-52 35 -69 21 -60 -18 11 -112 216 -112 244 0 21 33 -41 50 -93z m-89 -48
c-13 -12 -20 -15 -16 -7 14 26 28 41 33 35 3 -3 -5 -16 -17 -28z m55 -62 c8
-31 1 -212 -8 -221 -4 -3 -11 -3 -17 0 -6 4 -4 23 6 53 13 37 14 60 7 119 -9
71 -1 102 12 49z m-1378 -73 c10 -10 29 -40 42 -66 34 -71 24 -132 -39 -256
-28 -54 -74 -136 -104 -182 -29 -45 -131 -211 -227 -368 -272 -449 -331 -542
-337 -536 -6 6 70 139 192 336 56 91 140 228 187 305 47 77 121 199 165 270
104 169 119 198 143 269 27 79 25 104 -9 158 -45 70 -53 88 -41 88 5 0 18 -8
28 -18z m-2015 -39 c-7 -2 -19 -2 -25 0 -7 3 -2 5 12 5 14 0 19 -2 13 -5z
m961 -515 c86 -256 156 -475 156 -485 0 -10 5 -24 12 -31 15 -15 20 -132 5
-132 -9 0 -8 -3 0 -8 9 -6 4 -17 -17 -41 -17 -18 -30 -40 -30 -50 0 -24 -36
-56 -45 -41 -7 12 -36 -32 -34 -54 0 -6 5 -2 10 9 7 16 8 13 4 -12 -5 -37 3
-66 16 -57 5 3 6 -2 3 -10 -7 -18 51 -219 77 -267 7 -14 6 -19 -4 -19 -16 0
-41 54 -80 170 -24 70 -66 190 -232 665 -36 105 -77 219 -90 255 -26 69 -107
321 -123 381 -10 36 -9 37 20 43 20 4 56 33 106 85 42 44 80 77 83 73 4 -4 77
-217 163 -474z m-750 229 c-74 -80 -299 -403 -323 -464 -8 -20 -12 -59 -9
-101 3 -60 8 -75 41 -120 20 -29 35 -52 32 -52 -2 0 -28 9 -57 19 -29 11 -74
25 -101 32 -26 6 -50 15 -53 20 -3 5 -17 9 -32 9 -32 0 -296 76 -323 93 -22
14 -25 32 -6 44 6 4 68 8 137 8 117 0 128 2 178 28 71 37 119 82 221 207 127
155 202 237 261 281 61 45 77 44 34 -4z m-1031 -581 c20 -8 53 -26 73 -41 l36
-27 -32 -33 c-44 -45 -120 -76 -204 -84 l-70 -6 -8 -35 c-5 -19 -6 -63 -2 -97
6 -71 16 -77 61 -39 15 13 42 30 58 39 40 20 137 38 149 27 11 -11 -34 -33
-124 -60 -41 -12 -95 -33 -120 -45 -70 -36 -90 -40 -90 -18 0 10 -7 27 -15 37
-14 19 -15 19 -36 0 -17 -15 -36 -19 -98 -19 -105 1 -131 17 -131 83 0 94 91
170 217 180 62 5 65 6 81 41 29 60 113 106 197 109 11 1 37 -5 58 -12z m418
-336 c4 -19 15 -88 24 -152 10 -65 21 -118 24 -117 3 0 30 28 60 62 100 115
153 167 169 167 10 0 2 -12 -21 -32 -20 -18 -77 -82 -127 -143 -145 -176 -138
-169 -155 -155 -8 7 -15 25 -15 40 0 40 -31 274 -37 280 -6 6 -44 -38 -119
-137 -49 -65 -84 -91 -84 -63 0 6 28 43 63 83 34 39 80 95 101 122 75 96 105
107 117 45z m1742 -120 c-14 -13 -62 -20 -68 -10 -3 5 9 13 27 18 34 9 56 5
41 -8z m-4059 -156 c33 -8 64 -19 68 -23 7 -6 -47 -97 -95 -156 -41 -52 -114
-159 -131 -192 -19 -38 -32 -40 -102 -17 -67 23 -72 30 -32 47 39 16 76 59
166 193 61 89 72 117 52 129 -14 8 -13 35 1 35 6 0 39 -7 73 -16z m220 -70 c9
-8 16 -20 16 -25 0 -6 9 -7 23 -3 58 19 166 -17 183 -61 8 -20 -17 -62 -112
-187 -105 -138 -120 -164 -103 -184 9 -11 8 -14 -2 -14 -20 0 -127 34 -136 43
-4 4 14 29 38 55 98 102 209 258 209 293 0 20 -54 36 -87 25 -15 -5 -72 -66
-221 -236 -62 -72 -41 -17 40 102 96 141 102 153 84 167 -16 13 -71 -1 -97
-25 -34 -30 -30 -9 5 29 31 34 38 37 89 37 37 0 61 -5 71 -16z m650 -191 c21
-9 42 -30 51 -49 14 -30 14 -37 1 -62 -24 -47 -129 -86 -261 -97 -111 -10
-111 -10 -123 -57 -17 -65 10 -110 78 -131 17 -5 104 7 133 18 32 13 18 -16
-16 -30 -92 -38 -240 -23 -293 30 -31 31 -33 110 -4 174 27 59 125 152 200
190 52 26 75 31 131 31 43 0 81 -6 103 -17z m374 -139 c17 -3 32 -8 32 -12 0
-4 -18 -29 -40 -56 -56 -67 -52 -71 19 -17 31 24 43 26 129 26 90 0 95 -1 118
-28 44 -51 32 -86 -76 -232 -81 -110 -120 -167 -120 -177 0 -5 7 -8 15 -8 8 0
15 -4 15 -10 0 -13 -27 -13 -89 1 -57 12 -71 24 -48 42 9 7 40 48 69 92 30 44
77 112 105 150 59 81 72 115 48 135 -22 18 -103 7 -171 -24 -30 -14 -54 -22
-54 -19 0 15 -39 -31 -108 -131 -100 -143 -96 -134 -80 -153 11 -15 11 -16 -7
-9 -11 5 -43 16 -72 25 -29 9 -56 20 -60 24 -4 4 14 27 40 50 51 46 227 281
227 302 0 8 -4 17 -10 20 -5 3 -10 11 -10 16 0 10 33 8 128 -7z m872 -104 c0
-6 -33 -26 -74 -45 -40 -19 -81 -44 -90 -54 -17 -18 -15 -20 39 -40 31 -12 60
-21 65 -21 6 0 10 -4 10 -10 0 -12 6 -13 -60 5 -30 8 -63 15 -72 15 -22 0
-225 -302 -234 -348 -10 -50 9 -65 71 -58 47 6 49 5 30 -10 -16 -12 -39 -15
-108 -12 -80 3 -91 5 -109 27 -26 33 -18 59 40 143 202 289 196 280 179 293
-25 18 -21 25 17 25 18 0 60 14 92 31 109 56 204 84 204 59z m2510 -289 c-28
-56 -45 -62 -18 -7 12 25 26 46 30 46 5 0 -1 -18 -12 -39z m-2232 -27 c100
-50 127 -134 78 -241 -31 -65 -72 -104 -149 -141 -165 -79 -236 -82 -310 -13
-103 95 -63 255 89 356 108 72 202 84 292 39z m2113 -172 c-17 -27 -31 -51
-31 -54 0 -3 -35 -66 -77 -139 -42 -74 -101 -181 -132 -239 l-55 -105 16 -140
c9 -85 23 -155 34 -177 17 -37 14 -62 -6 -42 -18 18 -51 169 -57 264 l-6 95
53 100 c30 55 90 163 135 240 45 77 97 166 114 198 18 32 35 56 38 53 3 -3 -9
-27 -26 -54z m-1643 -27 c5 -5 -69 -125 -164 -265 -47 -69 -87 -137 -90 -151
l-6 -27 -74 27 c-68 24 -95 49 -46 44 22 -3 64 49 186 231 66 99 74 116 56
116 -5 0 -10 10 -10 21 0 21 3 21 73 14 39 -3 74 -8 75 -10z m170 -45 c39 -24
44 -44 7 -30 -30 11 -32 -1 -10 -44 19 -36 19 -36 -4 -36 -22 0 -51 35 -51 63
0 9 -7 20 -15 23 -13 5 -84 -31 -142 -72 -46 -33 -21 -3 47 56 79 67 110 75
168 40z m1103 -567 c-12 -23 -43 -61 -39 -48 10 29 32 65 40 65 5 0 4 -8 -1
-17z m-378 -202 c20 -62 31 -109 27 -105 -13 14 -80 214 -79 237 0 21 1 21 9
2 5 -11 24 -71 43 -134z m296 63 c-46 -82 -89 -149 -89 -140 0 12 113 206 118
202 2 -2 -11 -30 -29 -62z m-6275 21 c3 -9 19 -15 41 -15 20 0 63 -9 97 -21
51 -17 65 -18 85 -8 33 18 42 1 12 -24 -14 -12 -33 -34 -42 -49 -15 -24 -21
-26 -54 -21 -55 8 -61 20 -19 37 21 9 36 22 36 32 0 16 -1 16 -18 1 -25 -23
-39 -21 -78 8 -18 14 -41 25 -51 25 -26 0 -115 -87 -111 -108 2 -12 15 -18 46
-20 23 -2 42 -8 42 -13 0 -6 7 -6 19 1 27 14 41 13 41 -5 0 -8 -7 -15 -15 -15
-8 0 -20 -9 -27 -20 -7 -11 -16 -20 -20 -20 -8 0 -140 59 -147 66 -2 2 21 29
52 60 32 32 57 64 57 72 0 16 28 52 40 52 5 0 10 -7 14 -15z m-794 -225 c-6
-11 -13 -20 -16 -20 -2 0 0 9 6 20 6 11 13 20 16 20 2 0 0 -9 -6 -20z m7229
-12 c-14 -26 -78 -120 -87 -128 -9 -8 8 21 51 88 41 62 58 82 36 40z m-330
-122 c12 -11 21 -24 21 -30 -1 -6 -9 -1 -19 11 l-18 22 -67 -107 c-37 -59
-119 -195 -182 -302 -199 -336 -309 -518 -312 -515 -4 3 172 313 238 420 71
116 98 161 164 275 36 63 84 140 106 171 l40 55 -25 57 c-33 76 -31 86 4 17
16 -30 38 -64 50 -74z m-10 64 c0 -10 -3 -8 -9 5 -12 27 -12 43 0 25 5 -8 9
-22 9 -30z m-4884 -61 c127 -44 293 -103 370 -130 77 -28 280 -99 450 -158
1029 -360 1239 -435 1229 -438 -13 -4 -662 215 -1469 497 -66 23 -241 83 -390
135 -148 51 -304 105 -345 120 -41 15 -89 32 -107 38 -38 12 -33 32 6 22 14
-3 130 -42 256 -86z m-1885 -71 c15 -74 43 -159 83 -258 19 -47 43 -105 53
-130 10 -25 35 -74 57 -110 26 -44 32 -58 17 -45 -55 49 -175 316 -219 485
-23 84 -26 110 -16 110 8 0 18 -21 25 -52z m6961 -41 c-10 -9 -11 -8 -5 6 3
10 9 15 12 12 3 -3 0 -11 -7 -18z m-6631 -51 c336 -117 897 -324 965 -355 22
-11 65 -27 95 -36 82 -25 235 -86 355 -141 17 -7 66 -25 110 -39 101 -33 396
-141 452 -166 23 -11 46 -19 51 -19 8 0 47 -14 137 -50 11 -4 72 -27 135 -50
63 -24 198 -74 300 -113 102 -38 244 -91 315 -117 236 -86 458 -170 570 -215
61 -24 210 -80 333 -125 122 -44 318 -118 435 -164 117 -46 282 -111 367 -144
85 -33 238 -92 340 -132 102 -40 248 -95 325 -122 77 -28 178 -64 225 -80 47
-17 128 -46 180 -64 52 -18 95 -36 94 -41 -3 -21 -17 -53 -23 -53 -4 0 -64 24
-132 54 -68 29 -185 77 -259 106 -74 29 -157 63 -185 75 -83 36 -124 52 -260
103 -71 27 -184 70 -250 95 -410 156 -628 234 -805 287 -139 42 -250 82 -395
142 -66 27 -138 56 -160 65 -22 9 -68 29 -103 45 -81 36 -354 136 -682 248
-63 21 -180 62 -260 90 -80 29 -181 65 -225 80 -44 15 -97 34 -117 43 -21 10
-44 17 -51 17 -8 0 -16 3 -20 6 -3 4 -34 17 -69 29 -112 41 -332 126 -375 146
-24 10 -45 19 -47 19 -3 0 -44 19 -93 41 -191 89 -378 170 -603 258 -129 52
-266 106 -305 121 -38 16 -122 46 -185 69 -226 79 -403 151 -369 151 2 0 88
-29 189 -64z m6575 -36 c3 -5 2 -10 -4 -10 -5 0 -13 5 -16 10 -3 6 -2 10 4 10
5 0 13 -4 16 -10z m-6548 -26 c-3 -3 -12 -4 -19 -1 -8 3 -5 6 6 6 11 1 17 -2
13 -5z m93 -34 c13 -8 13 -10 -2 -10 -9 0 -20 5 -23 10 -8 13 5 13 25 0z
m6420 -45 c-7 -9 -15 -13 -18 -10 -3 2 1 11 8 20 7 9 15 13 18 10 3 -2 -1 -11
-8 -20z m-37 -62 c-11 -15 -37 -59 -58 -98 -21 -38 -47 -86 -58 -105 -35 -63
-159 -273 -213 -362 -30 -48 -54 -90 -54 -92 0 -4 -23 -45 -137 -244 -14 -24
-27 -41 -30 -39 -6 7 116 226 237 427 48 80 111 188 140 240 86 155 182 311
187 306 3 -3 -4 -17 -14 -33z m-6436 -19 c-3 -3 -12 -4 -19 -1 -8 3 -5 6 6 6
11 1 17 -2 13 -5z m154 -53 c13 -11 21 -22 17 -26 -9 -9 -68 26 -62 37 8 13
20 10 45 -11z m244 -71 c15 -6 25 -13 22 -16 -8 -8 -67 18 -67 29 0 5 4 6 9 3
4 -3 21 -10 36 -16z m3830 -100 c-27 -12 -43 -12 -25 0 8 5 22 9 30 9 10 0 8
-3 -5 -9z m-110 -40 c-27 -12 -43 -12 -25 0 8 5 22 9 30 9 10 0 8 -3 -5 -9z
m-55 -20 c-8 -5 -19 -10 -25 -10 -5 0 -3 5 5 10 8 5 20 10 25 10 6 0 3 -5 -5
-10z m-131 -44 c-2 -2 -15 -9 -29 -15 -24 -11 -24 -11 -6 3 16 13 49 24 35 12z
m-3844 -36 c13 -6 15 -9 5 -9 -8 0 -22 4 -30 9 -18 12 -2 12 25 0z m162 -61
c48 -19 113 -50 113 -54 0 -4 -163 54 -169 61 -9 8 29 4 56 -7z m5542 -151
c-37 -71 -124 -220 -131 -224 -14 -9 -9 13 10 37 10 13 42 66 72 117 29 50 54
92 57 92 2 0 -2 -10 -8 -22z m-169 -298 c-6 -12 -14 -20 -17 -17 -2 3 1 14 8
26 17 26 24 19 9 -9z m-54 -88 c-18 -16 -18 -16 -6 6 6 13 14 21 18 18 3 -4
-2 -14 -12 -24z m-2186 -292 c18 -12 2 -12 -25 0 -13 6 -15 9 -5 9 8 0 22 -4
30 -9z m85 -30 c3 -5 -1 -10 -9 -10 -8 0 -18 5 -21 10 -3 6 1 10 9 10 8 0 18
-4 21 -10z m105 -32 c0 -11 -47 -11 -54 0 -3 5 8 9 24 9 17 0 30 -4 30 -9z
m100 -18 c13 -9 13 -10 0 -10 -8 0 -22 5 -30 10 -13 9 -13 10 0 10 8 0 22 -5
30 -10z m67 -21 c15 -6 37 -15 48 -20 11 -5 33 -13 49 -19 16 -6 27 -13 24
-15 -4 -5 -92 26 -143 50 -36 17 -18 20 22 4z m160 -65 c-3 -3 -12 -4 -19 -1
-8 3 -5 6 6 6 11 1 17 -2 13 -5z m964 -386 c38 -13 69 -26 69 -30 0 -12 -10
-10 -90 22 -89 35 -77 39 21 8z m3967 -825 c22 -53 30 -143 12 -143 -5 0 -12
12 -16 28 -3 15 -12 46 -20 70 -15 47 -19 122 -6 107 5 -6 18 -33 30 -62z
m-9194 -112 c3 -5 -2 -8 -12 -7 -11 0 -18 -7 -20 -21 -3 -18 2 -23 17 -23 23
0 28 15 9 23 -8 3 -5 6 5 6 25 1 18 -33 -7 -37 -27 -6 -48 25 -35 49 10 20 34
25 43 10z m70 -35 c-3 -15 -8 -25 -11 -23 -2 3 -1 17 3 31 3 15 8 25 11 23 2
-3 1 -17 -3 -31z m-165 -7 l23 -31 -22 7 c-15 5 -26 2 -31 -6 -6 -9 -9 -1 -9
24 0 45 9 47 39 6z m247 4 l7 -27 9 24 c5 12 11 21 13 18 3 -3 1 -18 -5 -33
-11 -30 -25 -25 -33 10 -4 18 -5 18 -15 -5 -12 -28 -15 -18 -6 18 8 30 22 28
30 -5z m-336 -46 c10 -20 10 -20 -3 -5 -8 10 -17 15 -20 11 -4 -3 -7 1 -7 11
0 21 16 12 30 -17z m450 22 c12 -8 10 -9 -7 -4 -24 7 -33 -9 -10 -18 7 -3 4
-6 -7 -6 -15 -1 -16 -4 -6 -16 14 -17 0 -21 -17 -4 -9 9 -8 18 4 35 17 27 22
28 43 13z m-476 -41 c-3 -4 -12 -4 -22 -1 -15 6 -15 5 -3 -10 8 -11 9 -17 3
-17 -12 0 -32 31 -32 48 0 7 11 6 29 -1 17 -6 28 -14 25 -19z m564 -42 c-4
-25 -33 -33 -54 -15 -13 10 -12 15 7 35 17 19 25 21 36 12 8 -6 13 -21 11 -32z
m-628 -19 c0 -6 -9 -2 -20 8 -11 10 -20 23 -20 28 0 6 9 2 20 -8 11 -10 20
-23 20 -28z m380 28 c-7 -8 -16 -15 -21 -15 -5 0 -26 -11 -47 -24 -159 -100
-207 -128 -282 -165 -47 -22 -78 -36 -70 -31 39 28 419 249 429 250 2 0 -2 -7
-9 -15z m-483 -105 c14 -11 22 -20 17 -20 -12 1 -61 39 -51 40 5 0 20 -9 34
-20z m468 -5 c14 -13 25 -36 25 -50 0 -14 -11 -37 -25 -50 -13 -14 -36 -25
-50 -25 -33 0 -75 42 -75 75 0 14 11 37 25 50 13 14 36 25 50 25 14 0 37 -11
50 -25z m340 5 c-18 -19 -17 -20 5 -20 23 0 23 0 4 -21 -18 -20 -18 -20 11
-14 23 5 26 4 15 -4 -18 -13 -50 -14 -50 -3 0 4 6 14 13 21 10 11 9 13 -6 7
-32 -11 -40 5 -16 30 27 29 50 33 24 4z m-806 -66 c2 -2 -3 -4 -12 -4 -8 0
-17 -9 -19 -19 -3 -19 -3 -19 -27 0 -21 17 -22 22 -11 29 13 8 57 4 69 -6z
m637 -61 c3 -16 13 -55 21 -87 21 -85 11 -92 -88 -60 -112 35 -114 42 -38 114
71 66 95 74 105 33z m224 7 c-8 -5 -24 -9 -35 -9 -16 1 -16 2 5 9 35 11 48 11
30 0z m-516 -101 c14 -33 24 -64 21 -69 -3 -4 3 -6 12 -4 24 6 108 -37 108
-56 0 -8 -8 -14 -17 -14 -10 1 -16 -1 -13 -5 2 -4 -17 -17 -43 -28 -42 -18
-49 -27 -65 -71 -20 -55 -40 -78 -57 -67 -6 4 -23 32 -38 63 -19 40 -36 61
-57 70 -104 45 -108 59 -25 95 53 23 63 31 83 74 44 94 55 96 91 12z m546 42
c0 -21 -39 -36 -54 -21 -7 7 0 10 17 10 17 0 27 5 27 15 0 8 2 15 5 15 3 0 5
-8 5 -19z m-952 -29 c-10 -2 -18 -10 -18 -17 0 -7 8 -16 18 -18 9 -3 -1 -5
-23 -5 -22 0 -32 2 -22 5 18 5 24 33 7 33 -5 0 -10 4 -10 8 0 5 15 6 33 3 19
-3 25 -6 15 -9z m950 -70 c-19 -4 -25 -32 -8 -32 6 0 10 -4 10 -8 0 -5 -15 -6
-32 -3 -21 3 -26 6 -15 9 14 3 17 10 13 26 -5 21 -3 23 22 18 19 -4 22 -7 10
-10z m-988 -33 c0 -7 10 -9 25 -7 14 3 25 1 25 -3 0 -5 -11 -9 -24 -9 -15 0
-26 -7 -28 -17 -3 -11 -6 -5 -9 15 -3 17 -2 32 3 32 4 0 8 -5 8 -11z m69 -83
c-2 -2 -17 -6 -34 -10 -22 -5 -26 -4 -15 4 14 9 59 15 49 6z m886 -64 c-3 -3
-12 3 -21 14 -13 16 -15 17 -10 2 4 -13 0 -18 -15 -18 -19 0 -19 1 -5 16 9 8
13 21 9 27 -3 7 6 1 20 -12 15 -14 25 -27 22 -29z m-865 0 c0 -4 -6 -14 -12
-21 -11 -11 -9 -12 10 -6 14 4 22 2 22 -6 0 -15 -30 -49 -43 -49 -6 0 -2 9 8
20 18 19 17 20 -5 20 -23 0 -23 0 -4 21 18 20 18 20 -11 14 -23 -5 -26 -4 -15
4 18 13 50 14 50 3z m811 -62 c31 -26 15 -26 -18 0 -14 11 -21 20 -15 20 5 0
20 -9 33 -20z m-693 -82 c17 -17 -25 -63 -45 -47 -14 12 -18 41 -6 52 10 11
38 8 51 -5z m612 -31 c0 -6 -9 -2 -20 8 -11 10 -20 23 -20 28 0 6 9 2 20 -8
11 -10 20 -23 20 -28z m-50 -44 c0 -8 -7 -8 -29 0 -17 6 -28 14 -25 19 3 4 11
5 19 1 11 -4 14 0 9 13 -6 17 -5 17 9 -1 9 -11 17 -25 17 -32z m1528 40 c-10
-2 -28 -2 -40 0 -13 2 -5 4 17 4 22 1 32 -1 23 -4z m399 1 c-3 -3 -12 -4 -19
-1 -8 3 -5 6 6 6 11 1 17 -2 13 -5z m-2409 -17 c8 -9 6 -19 -7 -36 -15 -20
-21 -22 -37 -12 -18 11 -17 11 4 6 23 -7 32 9 10 18 -8 3 -5 6 6 6 15 1 16 4
6 16 -7 8 -8 15 -2 15 5 0 14 -6 20 -13z m435 -44 c-6 -15 -19 -9 -33 17 -9
16 -7 17 14 7 13 -6 21 -17 19 -24z m-363 -11 c0 -13 -2 -14 -9 -4 -6 10 -10
8 -14 -9 -4 -13 -9 -21 -12 -17 -3 3 -1 17 5 32 10 28 30 27 30 -2z m275 -30
c-5 -15 -9 -13 -25 8 -25 32 -25 39 0 33 12 -3 21 0 21 8 1 8 4 4 6 -9 3 -13
2 -31 -2 -40z m-251 14 c-3 -14 -11 -26 -16 -26 -5 0 -7 6 -4 13 3 6 9 20 12
30 10 27 16 13 8 -17z m60 -10 c-3 -15 -8 -25 -11 -23 -2 3 -1 17 3 31 3 15 8
25 11 23 2 -3 1 -17 -3 -31z m105 17 c18 -33 -25 -73 -45 -41 -4 7 -3 8 5 4
16 -10 41 12 34 30 -3 8 -14 14 -24 14 -21 0 -26 -16 -6 -23 9 -4 9 -6 0 -6
-15 -1 -26 16 -18 29 10 16 43 12 54 -7z"/>
<path d="M6467 11432 c-18 -20 -18 -20 34 -31 48 -11 55 -10 73 8 25 26 20 30
-40 37 -41 5 -52 3 -67 -14z"/>
<path d="M6595 11400 c-22 -24 -22 -23 38 -40 26 -7 47 -17 47 -23 0 -9 -20
-7 -80 9 -39 10 -11 -12 32 -25 36 -12 38 -11 78 29 23 23 40 43 38 45 -4 4
-106 25 -122 25 -7 0 -21 -9 -31 -20z"/>
<path d="M6365 11324 c-36 -42 -64 -79 -61 -82 4 -3 21 -6 39 -7 17 -1 48 -5
67 -9 32 -7 37 -5 53 24 11 17 16 34 13 37 -4 4 -30 -3 -59 -15 -62 -26 -74
-27 -57 -7 29 35 69 56 87 47 56 -29 191 -48 194 -27 2 15 -109 46 -174 48
-45 2 -57 5 -54 17 3 16 28 18 90 8 42 -8 51 9 10 17 -16 4 -36 10 -45 16 -29
15 -34 12 -103 -67z"/>
<path d="M6492 11249 c-16 -25 -18 -22 33 -38 22 -7 45 -14 51 -17 7 -3 22 9
34 26 23 33 21 51 -4 31 -11 -10 -21 -9 -45 3 -40 21 -54 20 -69 -5z"/>
<path d="M6548 11173 c7 -3 16 -2 19 1 4 3 -2 6 -13 5 -11 0 -14 -3 -6 -6z"/>
<path d="M2001 4801 c-28 -39 -26 -48 12 -53 17 -3 39 -8 47 -11 21 -10 80 29
80 52 0 12 -11 23 -31 30 -55 19 -86 14 -108 -18z"/>
<path d="M6926 11328 c-8 -12 -13 -25 -10 -30 8 -13 99 -9 119 6 17 12 14 14
-30 30 -61 20 -61 20 -79 -6z"/>
<path d="M11514 9559 c-35 -50 -86 -140 -82 -144 2 -2 14 13 28 32 14 19 40
55 58 80 18 24 32 52 30 60 -2 10 -14 0 -34 -28z"/>
<path d="M11541 9521 c-7 -5 -12 -14 -10 -20 2 -6 10 -2 17 9 14 22 13 23 -7
11z"/>
<path d="M11345 9292 c-27 -42 -53 -85 -57 -94 -4 -10 -12 -18 -18 -18 -5 0
-10 -5 -10 -10 0 -6 -11 -27 -25 -48 -14 -20 -37 -55 -52 -77 -51 -77 6 -13
69 77 87 125 105 153 134 204 40 72 13 50 -41 -34z"/>
<path d="M11400 9244 c0 -8 5 -12 10 -9 6 3 10 10 10 16 0 5 -4 9 -10 9 -5 0
-10 -7 -10 -16z"/>
<path d="M11136 8954 c-5 -14 -4 -15 9 -4 17 14 19 20 6 20 -5 0 -12 -7 -15
-16z"/>
<path d="M11047 8904 c-10 -13 -13 -24 -8 -24 10 0 36 39 29 45 -2 2 -11 -8
-21 -21z"/>
<path d="M10963 8675 c-21 -25 -46 -81 -26 -60 12 12 56 85 51 85 -2 0 -13
-12 -25 -25z"/>
<path d="M10833 8473 c-16 -6 -17 -33 -3 -33 11 0 26 28 19 34 -2 2 -10 1 -16
-1z"/>
<path d="M10747 8323 c-4 -3 -7 -11 -7 -17 0 -6 5 -5 12 2 6 6 9 14 7 17 -3 3
-9 2 -12 -2z"/>
<path d="M10602 8080 c-7 -11 -12 -25 -12 -32 0 -7 7 0 15 16 18 33 15 45 -3
16z"/>
<path d="M10135 7260 c-9 -16 -14 -30 -12 -30 2 0 13 14 25 30 13 17 18 30 13
30 -6 0 -17 -13 -26 -30z"/>
<path d="M10090 7140 c0 -5 5 -10 10 -10 6 0 10 5 10 10 0 6 -4 10 -10 10 -5
0 -10 -4 -10 -10z"/>
<path d="M9528 6198 c-47 -71 -158 -288 -148 -288 5 0 14 14 22 30 7 17 16 30
20 30 5 0 8 7 8 15 0 9 16 39 35 68 19 28 35 55 35 59 0 4 16 35 36 68 45 77
39 89 -8 18z"/>
<path d="M9356 5875 c-9 -26 -7 -32 5 -12 6 10 9 21 6 23 -2 3 -7 -2 -11 -11z"/>
<path d="M8558 4473 c-8 -10 -18 -27 -22 -37 -7 -19 -6 -19 13 -2 10 9 21 26
24 37 6 23 4 24 -15 2z"/>
<path d="M1540 4406 c28 -17 60 -22 45 -7 -6 5 -23 12 -40 16 l-30 6 25 -15z"/>
<path d="M8513 4393 c-3 -10 -15 -30 -25 -45 -10 -14 -18 -29 -18 -32 0 -11
18 -6 23 7 3 6 12 29 21 50 9 20 14 37 11 37 -3 0 -8 -8 -12 -17z"/>
<path d="M8450 4291 c0 -5 -3 -18 -6 -28 -6 -16 -5 -16 9 2 19 23 21 35 7 35
-5 0 -10 -4 -10 -9z"/>
<path d="M1847 4249 c7 -7 15 -10 18 -7 3 3 -2 9 -12 12 -14 6 -15 5 -6 -5z"/>
<path d="M8412 4215 c-6 -14 -10 -25 -8 -25 2 0 11 11 20 25 9 14 13 25 8 25
-5 0 -14 -11 -20 -25z"/>
<path d="M8370 4140 c-6 -11 -8 -20 -6 -20 3 0 10 9 16 20 6 11 8 20 6 20 -3
0 -10 -9 -16 -20z"/>
<path d="M1545 4100 c3 -5 8 -10 11 -10 2 0 4 5 4 10 0 6 -5 10 -11 10 -5 0
-7 -4 -4 -10z"/>
<path d="M1737 4099 c7 -7 15 -10 18 -7 3 3 -2 9 -12 12 -14 6 -15 5 -6 -5z"/>
<path d="M2131 4061 c-8 -5 -9 -11 -3 -15 5 -3 15 1 22 9 14 16 3 20 -19 6z"/>
<path d="M2204 4021 c4 -6 16 -11 26 -11 10 0 20 -4 22 -8 10 -24 178 -74 178
-53 0 10 -34 21 -67 21 -13 0 -23 4 -23 8 0 10 -47 35 -70 38 -8 1 -28 5 -44
9 -21 6 -27 5 -22 -4z"/>
<path d="M1632 3995 c-17 -19 -1 -19 24 0 14 11 15 14 4 14 -8 0 -21 -6 -28
-14z"/>
<path d="M2450 4006 c0 -2 7 -7 16 -10 8 -3 12 -2 9 4 -6 10 -25 14 -25 6z"/>
<path d="M1656 3971 c-3 -5 1 -12 10 -15 22 -8 25 -4 9 11 -8 7 -16 9 -19 4z"/>
<path d="M2550 3965 c0 -8 128 -65 145 -65 7 0 17 -5 20 -11 4 -5 17 -9 30 -7
13 2 32 -5 43 -15 11 -10 26 -17 34 -16 7 2 27 -5 45 -14 18 -9 40 -17 49 -17
10 0 25 -6 33 -14 14 -13 111 -32 111 -22 0 8 -215 89 -232 88 -10 0 -18 3
-18 8 0 6 -42 19 -85 25 -5 1 -30 12 -55 23 -25 12 -53 22 -62 22 -9 0 -20 5
-23 10 -6 10 -35 14 -35 5z"/>
<path d="M2432 3935 c-21 -11 -18 -14 52 -43 42 -17 78 -26 81 -21 4 5 -1 9
-10 9 -8 0 -18 7 -22 16 -4 11 -13 14 -29 10 -18 -5 -22 -3 -18 8 8 22 -27 35
-54 21z"/>
<path d="M1808 3913 c7 -3 16 -2 19 1 4 3 -2 6 -13 5 -11 0 -14 -3 -6 -6z"/>
<path d="M2625 3870 c-3 -5 -1 -10 4 -10 6 0 11 5 11 10 0 6 -2 10 -4 10 -3 0
-8 -4 -11 -10z"/>
<path d="M2590 3850 c8 -5 22 -10 30 -10 13 0 13 1 0 10 -8 5 -22 10 -30 10
-13 0 -13 -1 0 -10z"/>
<path d="M2678 3853 c7 -3 16 -2 19 1 4 3 -2 6 -13 5 -11 0 -14 -3 -6 -6z"/>
<path d="M2710 3839 c0 -5 5 -7 10 -4 6 3 10 8 10 11 0 2 -4 4 -10 4 -5 0 -10
-5 -10 -11z"/>
<path d="M2718 3813 c6 -2 18 -2 25 0 6 3 1 5 -13 5 -14 0 -19 -2 -12 -5z"/>
<path d="M2814 3801 c3 -5 18 -12 33 -16 14 -3 38 -15 51 -26 14 -10 36 -18
51 -18 21 1 22 2 6 6 -11 3 -22 9 -25 14 -6 9 -96 49 -111 49 -6 0 -8 -4 -5
-9z"/>
<path d="M2770 3796 c0 -2 7 -6 15 -10 8 -3 15 -1 15 4 0 6 -7 10 -15 10 -8 0
-15 -2 -15 -4z"/>
<path d="M3117 3750 c-6 -22 9 -28 16 -7 3 9 9 9 28 0 13 -6 33 -14 44 -18 36
-11 2 11 -41 28 -40 15 -42 15 -47 -3z"/>
<path d="M2133 3743 c-16 -6 -17 -23 -1 -23 6 0 86 -30 177 -66 139 -56 211
-82 241 -89 3 0 20 -9 38 -18 18 -10 36 -15 41 -13 5 3 14 -1 21 -9 7 -8 18
-15 25 -15 6 0 55 -18 108 -39 54 -22 97 -36 97 -32 0 5 -27 18 -60 30 -32 12
-62 26 -65 31 -4 6 -13 10 -21 10 -8 0 -33 9 -55 19 -22 11 -54 23 -72 27 -17
3 -38 10 -47 15 -25 15 -74 32 -84 30 -5 -1 -16 5 -25 13 -10 9 -32 19 -49 22
-18 4 -32 10 -32 15 0 5 -6 9 -13 9 -7 0 -31 9 -52 19 -22 10 -44 17 -51 14
-7 -2 -15 0 -19 6 -3 6 -14 11 -24 11 -10 0 -24 7 -31 15 -7 8 -16 13 -20 10
-5 -3 -10 -1 -12 3 -1 5 -9 7 -15 5z"/>
<path d="M3308 3691 c18 -12 40 -21 50 -21 26 0 41 -13 39 -35 -2 -17 5 -20
42 -22 30 -1 40 2 30 8 -12 7 -12 9 0 9 22 0 7 10 -24 16 -15 3 -37 11 -49 19
-11 8 -30 15 -42 15 -12 0 -24 4 -26 9 -1 4 -14 12 -28 15 -21 6 -20 4 8 -13z"/>
<path d="M3280 3670 c0 -5 5 -10 11 -10 5 0 7 5 4 10 -3 6 -8 10 -11 10 -2 0
-4 -4 -4 -10z"/>
<path d="M3325 3650 c3 -5 8 -10 11 -10 2 0 4 5 4 10 0 6 -5 10 -11 10 -5 0
-7 -4 -4 -10z"/>
<path d="M3500 3593 c-13 -15 -12 -16 4 -10 10 4 22 7 27 7 6 0 7 5 4 10 -9
14 -18 12 -35 -7z"/>
<path d="M3678 3518 c5 -5 16 -8 23 -6 8 3 3 7 -10 11 -17 4 -21 3 -13 -5z"/>
<path d="M3795 3441 c11 -5 47 -20 80 -32 33 -13 64 -27 70 -31 5 -4 17 -8 26
-8 9 0 30 -7 45 -15 16 -8 38 -15 49 -14 14 0 7 6 -20 19 -22 10 -46 19 -53
19 -8 1 -28 8 -45 16 -46 21 -118 46 -147 51 -22 4 -23 3 -5 -5z"/>
<path d="M2890 3436 c0 -6 60 -36 72 -36 4 0 37 -13 71 -30 62 -29 101 -41 62
-18 -19 11 -195 88 -202 88 -2 0 -3 -2 -3 -4z"/>
<path d="M3785 3378 c22 -12 45 -22 50 -22 16 -1 159 -58 170 -67 5 -6 1 -9
-10 -9 -17 0 -18 -2 -5 -10 21 -14 53 -13 44 2 -4 7 -3 8 5 4 6 -4 9 -11 6
-16 -7 -11 51 -34 70 -27 8 4 20 1 27 -6 7 -7 24 -14 38 -15 14 -2 30 -7 35
-11 6 -5 34 -16 63 -27 42 -14 49 -20 35 -26 -11 -5 -5 -6 15 -2 20 3 32 1 32
-5 0 -6 12 -11 28 -12 l27 -1 -25 -7 c-24 -7 -23 -8 15 -20 38 -12 90 -32 235
-88 36 -14 94 -39 130 -55 36 -16 74 -33 85 -38 28 -11 113 -48 160 -70 22 -9
67 -28 100 -40 111 -41 190 -75 193 -82 2 -5 7 -8 12 -8 5 0 21 -5 37 -12 15
-6 32 -10 37 -9 5 1 12 -2 15 -7 8 -13 185 -78 234 -87 21 -4 35 -10 32 -13
-5 -6 8 -11 120 -51 33 -12 74 -28 90 -35 94 -43 444 -176 462 -176 12 0 25
-4 28 -10 3 -5 13 -10 21 -10 8 0 74 -23 147 -51 73 -28 175 -66 227 -85 52
-18 120 -43 150 -54 30 -12 96 -35 145 -52 50 -16 97 -36 106 -44 14 -13 19
-11 42 20 28 35 87 139 87 151 0 3 -29 -23 -63 -59 -35 -36 -67 -66 -71 -66
-3 0 -46 15 -94 34 -48 19 -172 64 -277 101 -267 94 -354 127 -565 213 -247
100 -331 133 -355 136 -51 8 -85 18 -80 26 5 8 -1 11 -120 54 -205 74 -351
129 -440 165 -126 52 -223 90 -350 136 -55 20 -122 47 -150 60 -27 12 -68 28
-90 35 -22 7 -57 21 -79 31 -35 16 -37 18 -15 21 18 3 8 9 -41 25 -36 12 -99
36 -140 53 -223 92 -273 111 -286 106 -8 -3 -13 -2 -10 3 3 5 -16 16 -42 26
-26 9 -65 25 -87 34 -22 10 -62 26 -90 36 -27 10 -54 22 -59 27 -6 4 -19 8
-30 8 -15 -1 -10 -7 19 -22z m660 -268 c3 -5 2 -10 -4 -10 -5 0 -13 5 -16 10
-3 6 -2 10 4 10 5 0 13 -4 16 -10z m51 -16 c17 -14 17 -15 1 -10 -10 3 -23 6
-28 6 -5 0 -9 5 -9 10 0 14 13 12 36 -6z"/>
<path d="M3150 3325 c14 -8 32 -14 40 -14 8 0 0 6 -19 14 -42 19 -54 19 -21 0z"/>
<path d="M3215 3300 c3 -5 11 -10 16 -10 6 0 7 5 4 10 -3 6 -11 10 -16 10 -6
0 -7 -4 -4 -10z"/>
<path d="M4265 3290 c3 -5 16 -10 28 -10 18 0 19 2 7 10 -20 13 -43 13 -35 0z"/>
<path d="M3278 3273 c7 -3 16 -2 19 1 4 3 -2 6 -13 5 -11 0 -14 -3 -6 -6z"/>
<path d="M4210 3276 c0 -2 9 -6 20 -9 11 -3 20 -1 20 4 0 5 -9 9 -20 9 -11 0
-20 -2 -20 -4z"/>
<path d="M4320 3276 c0 -2 11 -6 25 -8 13 -3 22 -1 19 3 -5 9 -44 13 -44 5z"/>
<path d="M3310 3264 c0 -7 52 -25 57 -20 2 2 -10 8 -26 14 -17 6 -31 9 -31 6z"/>
<path d="M4268 3253 c7 -3 16 -2 19 1 4 3 -2 6 -13 5 -11 0 -14 -3 -6 -6z"/>
<path d="M4325 3235 c17 -8 37 -14 45 -14 8 0 2 7 -15 14 -16 8 -37 14 -45 14
-8 0 -1 -7 15 -14z"/>
<path d="M3880 3220 c0 -6 11 -10 25 -10 14 0 25 -4 25 -10 0 -5 9 -10 19 -10
11 0 23 -4 26 -10 8 -12 35 -13 35 -1 0 5 -8 11 -17 14 -10 3 -39 12 -65 21
-27 8 -48 11 -48 6z"/>
<path d="M4050 3151 c0 -6 12 -11 26 -11 14 0 23 -4 20 -9 -5 -8 29 -23 59
-26 6 -1 32 -11 59 -23 56 -25 59 -26 54 -11 -4 11 -150 75 -195 86 -14 3 -23
1 -23 -6z"/>
<path d="M4595 3070 c27 -12 43 -12 25 0 -8 5 -22 9 -30 9 -10 0 -8 -3 5 -9z"/>
<path d="M4290 3055 c7 -8 20 -15 29 -15 10 0 26 -7 37 -15 10 -8 29 -15 40
-15 12 0 24 -7 28 -15 3 -8 14 -15 24 -15 11 0 25 -7 32 -15 7 -8 23 -15 35
-15 12 0 28 -7 35 -15 7 -8 23 -15 36 -15 13 0 24 -5 24 -11 0 -7 10 -9 25 -5
14 4 25 3 25 -2 0 -13 88 -52 103 -46 8 3 17 -2 20 -10 8 -20 65 -49 83 -42 8
3 12 2 9 -4 -5 -7 75 -50 94 -50 4 0 7 9 7 21 0 16 -13 27 -51 44 -72 32 -158
60 -174 56 -7 -1 -10 2 -7 8 4 6 -5 13 -21 17 -15 4 -32 10 -38 14 -5 3 -39
18 -75 32 -36 14 -122 49 -192 77 -70 28 -130 51 -134 51 -4 0 -1 -7 6 -15z"/>
<path d="M5010 3060 c0 -5 10 -10 23 -10 18 0 19 2 7 10 -19 13 -30 13 -30 0z"/>
<path d="M4061 3056 c2 -2 18 -6 34 -10 22 -5 26 -4 15 4 -14 9 -59 15 -49 6z"/>
<path d="M4675 3040 c53 -24 70 -24 25 0 -19 11 -42 19 -50 19 -8 0 3 -9 25
-19z"/>
<path d="M4146 3041 c-3 -5 1 -14 8 -20 12 -10 13 -8 9 8 -6 23 -9 25 -17 12z"/>
<path d="M5065 3045 c6 -2 28 -8 50 -14 36 -9 38 -9 21 4 -11 8 -34 15 -50 14
-17 0 -26 -2 -21 -4z"/>
<path d="M7800 3018 c-12 -22 -12 -22 6 -6 10 10 15 20 12 24 -4 3 -12 -5 -18
-18z"/>
<path d="M5164 3013 c8 -8 76 -32 76 -27 0 2 -13 10 -30 19 -30 15 -59 21 -46
8z"/>
<path d="M4760 3007 c8 -8 94 -37 98 -32 2 2 -5 8 -15 13 -21 11 -90 27 -83
19z"/>
<path d="M5250 2986 c0 -3 15 -9 33 -14 17 -6 41 -13 52 -17 12 -4 10 -1 -5 8
-27 15 -80 30 -80 23z"/>
<path d="M4939 2945 c29 -14 55 -24 58 -22 2 3 -15 12 -39 22 -69 28 -78 27
-19 0z"/>
<path d="M5370 2940 c8 -5 24 -10 34 -10 26 0 18 6 -19 14 -22 5 -26 4 -15 -4z"/>
<path d="M5020 2915 c0 -8 73 -36 78 -30 3 2 -11 12 -31 20 -39 16 -47 18 -47
10z"/>
<path d="M4385 2900 c3 -5 10 -10 16 -10 5 0 9 5 9 10 0 6 -7 10 -16 10 -8 0
-12 -4 -9 -10z"/>
<path d="M5155 2860 c53 -24 70 -24 25 0 -19 11 -42 19 -50 19 -8 0 3 -9 25
-19z"/>
<path d="M5255 2860 c22 -11 47 -19 55 -19 21 0 -29 25 -65 32 -26 5 -25 4 10
-13z"/>
<path d="M5404 2805 c11 -8 27 -15 35 -15 10 1 7 6 -9 15 -33 19 -50 18 -26 0z"/>
<path d="M5340 2784 c56 -26 263 -99 380 -135 36 -11 100 -34 144 -50 43 -17
80 -28 83 -26 6 7 -132 62 -202 82 -66 18 -199 62 -230 76 -29 13 -218 79
-224 78 -3 0 19 -11 49 -25z"/>
<path d="M5004 2765 c14 -10 15 -15 6 -15 -26 0 4 -17 100 -56 52 -21 112 -38
133 -38 21 0 34 -2 28 -4 -6 -2 -11 -8 -11 -14 0 -6 7 -8 15 -4 8 3 15 1 15
-5 0 -6 9 -8 20 -4 14 5 20 2 20 -9 0 -10 9 -16 25 -16 14 0 25 -5 25 -11 0
-6 8 -8 19 -4 13 4 27 -1 38 -12 10 -10 28 -17 42 -15 13 2 21 -1 17 -6 -3 -5
2 -16 11 -23 9 -8 17 -13 17 -11 1 1 17 -3 36 -10 19 -7 39 -11 44 -10 4 2 45
-13 90 -31 81 -35 398 -157 576 -224 52 -19 133 -51 180 -69 47 -19 90 -34 95
-34 18 0 -32 29 -86 50 -30 12 -69 28 -87 36 -18 8 -92 35 -165 60 -125 43
-278 102 -377 146 -25 12 -56 24 -70 29 -14 4 -79 32 -145 62 -66 30 -140 63
-165 74 -25 11 -67 31 -95 43 -55 25 -88 38 -245 99 -111 43 -137 50 -106 26z
m73 -31 c-3 -3 -12 -4 -19 -1 -8 3 -5 6 6 6 11 1 17 -2 13 -5z"/>
<path d="M5510 2770 c8 -5 20 -10 25 -10 6 0 3 5 -5 10 -8 5 -19 10 -25 10 -5
0 -3 -5 5 -10z"/>
<path d="M4860 2711 c24 -13 77 -24 65 -13 -5 5 -26 12 -45 16 -21 3 -29 2
-20 -3z"/>
<path d="M4950 2683 c8 -3 38 -17 67 -29 28 -13 58 -24 65 -24 8 0 18 -4 24
-9 13 -14 244 -90 244 -81 0 4 -55 27 -122 50 -68 24 -141 51 -163 61 -51 22
-105 39 -119 38 -6 0 -4 -3 4 -6z"/>
<path d="M6005 2670 c27 -12 43 -12 25 0 -8 5 -22 9 -30 9 -10 0 -8 -3 5 -9z"/>
<path d="M4884 2661 c4 -5 23 -15 44 -22 20 -6 42 -15 47 -19 15 -10 96 -32
101 -27 2 2 -17 11 -43 19 -27 9 -72 25 -101 37 -29 12 -51 17 -48 12z"/>
<path d="M6056 2651 c5 -5 20 -12 34 -15 l25 -7 -25 15 c-28 17 -50 21 -34 7z"/>
<path d="M6190 2601 c59 -24 108 -35 95 -23 -10 10 -115 43 -132 41 -4 0 12
-8 37 -18z"/>
<path d="M5500 2600 c8 -5 20 -10 25 -10 6 0 3 5 -5 10 -8 5 -19 10 -25 10 -5
0 -3 -5 5 -10z"/>
<path d="M5140 2560 c14 -11 30 -20 35 -21 6 0 17 -2 25 -4 70 -16 72 -11 5
14 -95 36 -97 36 -65 11z"/>
<path d="M5966 2562 c17 -15 64 -32 64 -23 0 5 -14 14 -31 20 -38 13 -46 14
-33 3z"/>
<path d="M5360 2530 c0 -6 7 -10 15 -10 8 0 15 2 15 4 0 2 -7 6 -15 10 -8 3
-15 1 -15 -4z"/>
<path d="M6395 2525 c34 -16 64 -20 50 -6 -6 4 -26 11 -45 14 l-35 6 30 -14z"/>
<path d="M5310 2510 c0 -5 12 -13 28 -16 15 -4 59 -21 97 -37 39 -16 106 -42
150 -57 44 -15 129 -48 190 -73 60 -25 112 -44 114 -41 3 3 0 9 -8 13 -7 5
-12 12 -11 17 1 4 -34 19 -77 32 -43 13 -91 30 -108 37 -16 7 -79 30 -140 50
-60 21 -138 48 -172 61 -35 13 -63 19 -63 14z"/>
<path d="M5700 2515 c0 -20 401 -177 415 -163 6 6 -31 22 -175 76 -58 22 -118
47 -135 56 -16 9 -38 16 -47 16 -9 0 -20 5 -23 10 -6 10 -35 14 -35 5z"/>
<path d="M6080 2516 c0 -2 7 -6 15 -10 8 -3 15 -1 15 4 0 6 -7 10 -15 10 -8 0
-15 -2 -15 -4z"/>
<path d="M6520 2484 c36 -14 83 -31 105 -38 22 -8 49 -17 60 -21 14 -5 17 -5
10 2 -13 14 -201 83 -223 82 -9 0 12 -11 48 -25z"/>
<path d="M6487 2459 c7 -7 15 -10 18 -7 3 3 -2 9 -12 12 -14 6 -15 5 -6 -5z"/>
<path d="M6341 2416 c2 -3 60 -25 127 -50 68 -25 136 -53 152 -61 16 -8 35
-15 42 -15 16 1 -84 50 -138 68 -21 7 -48 17 -59 22 -74 31 -138 49 -124 36z"/>
<path d="M6728 2404 c22 -15 82 -36 82 -29 0 5 -86 45 -97 45 -4 0 3 -7 15
-16z"/>
<path d="M5515 2385 c28 -13 61 -26 75 -29 l25 -6 -25 12 c-78 37 -105 48
-114 47 -6 0 12 -11 39 -24z"/>
<path d="M6140 2340 c0 -6 6 -12 13 -14 113 -32 157 -42 157 -35 0 6 -6 11
-12 13 -7 2 -35 11 -63 19 -27 8 -60 18 -72 22 -14 4 -23 2 -23 -5z"/>
<path d="M5737 2299 c7 -7 15 -10 18 -7 3 3 -2 9 -12 12 -14 6 -15 5 -6 -5z"/>
<path d="M5910 2287 c0 -14 112 -67 141 -67 9 0 19 -7 23 -15 3 -8 12 -15 21
-15 8 0 34 -9 58 -19 46 -22 240 -99 327 -132 30 -11 63 -25 74 -31 10 -5 37
-16 59 -24 33 -12 42 -12 50 -2 6 9 7 8 4 -4 -3 -9 1 -19 9 -22 22 -8 26 -7
19 4 -10 16 22 11 75 -12 28 -12 46 -24 41 -28 -5 -3 9 -6 32 -6 23 -1 43 -7
45 -13 2 -6 10 -11 18 -11 9 0 13 -4 10 -9 -3 -4 7 -13 22 -20 25 -11 26 -10
7 4 -18 14 -17 15 15 9 54 -9 62 -13 57 -28 -6 -16 95 -61 118 -52 8 3 15 1
15 -4 0 -17 41 -11 75 10 18 11 56 54 84 95 53 79 58 93 16 48 -22 -25 -25
-25 -25 -8 0 16 -5 14 -33 -13 -39 -38 -69 -41 -146 -11 -52 19 -81 20 -81 1
0 -5 45 -22 100 -37 55 -16 100 -32 100 -37 0 -28 -75 -17 -190 28 -111 44
-131 52 -265 100 -71 26 -148 48 -170 49 -22 2 -53 8 -70 15 -27 11 -28 13
-10 20 l20 8 -20 7 c-11 5 -35 14 -54 22 -43 17 -52 10 -14 -12 15 -9 19 -13
8 -9 -11 4 -32 9 -47 12 -16 2 -28 8 -28 13 0 5 -8 9 -17 10 -16 0 -15 1 1 8
18 7 18 8 -5 14 -13 4 -33 7 -44 7 -12 0 -26 5 -32 11 -7 7 -36 20 -65 31
-112 42 -174 66 -213 83 -61 26 -107 45 -111 45 -2 0 -4 -6 -4 -13z m1352
-429 c-7 -7 -12 -8 -12 -2 0 14 12 26 19 19 2 -3 -1 -11 -7 -17z m-157 -38 c3
-5 2 -10 -4 -10 -5 0 -13 5 -16 10 -3 6 -2 10 4 10 5 0 13 -4 16 -10z"/>
<path d="M7346 2267 c-29 -38 -34 -56 -11 -37 8 7 15 17 15 23 0 6 7 19 17 29
9 10 13 18 10 18 -3 0 -17 -15 -31 -33z"/>
<path d="M6769 2255 c52 -20 95 -34 97 -32 7 7 -119 57 -156 62 -19 3 7 -11
59 -30z"/>
<path d="M5800 2276 c0 -2 7 -7 16 -10 8 -3 12 -2 9 4 -6 10 -25 14 -25 6z"/>
<path d="M6383 2245 c38 -19 81 -39 95 -44 15 -6 45 -21 68 -34 22 -12 53 -27
70 -34 119 -47 162 -65 179 -73 11 -6 45 -18 75 -29 30 -10 110 -39 178 -65
68 -25 131 -46 140 -46 30 1 89 65 105 115 7 20 7 20 -8 1 -8 -11 -15 -23 -15
-27 0 -7 -31 -22 -36 -16 -2 1 3 16 11 31 l15 28 -35 -31 c-20 -17 -42 -31
-51 -31 -8 0 -55 16 -104 35 -49 19 -98 35 -108 35 -9 0 -26 6 -37 14 -11 7
-36 17 -55 21 -19 4 -44 14 -55 21 -27 19 -59 18 -51 -1 7 -19 -5 -19 -30 0
-10 8 -37 20 -59 26 -40 11 -68 22 -160 64 -157 72 -262 104 -132 40z m422
-155 c3 -5 2 -10 -4 -10 -5 0 -13 5 -16 10 -3 6 -2 10 4 10 5 0 13 -4 16 -10z
m242 -86 c-3 -3 -12 -4 -19 -1 -8 3 -5 6 6 6 11 1 17 -2 13 -5z m98 -44 c4 -7
-3 -8 -22 -4 -38 9 -42 14 -10 14 14 0 29 -5 32 -10z"/>
<path d="M6488 2245 c13 -9 26 -14 29 -11 8 8 3 12 -27 21 l-25 7 23 -17z"/>
<path d="M5870 2247 c0 -2 28 -16 63 -30 34 -14 118 -49 185 -77 68 -29 126
-50 128 -47 2 2 -42 23 -98 47 -57 23 -116 49 -133 57 -27 14 -133 53 -142 53
-1 0 -3 -2 -3 -3z"/>
<path d="M6170 2243 c8 -3 24 -10 35 -15 20 -9 20 -9 1 6 -11 9 -27 16 -35 15
-14 0 -14 -1 -1 -6z"/>
<path d="M6570 2200 c21 -13 121 -42 127 -37 6 7 -103 47 -125 47 -15 0 -15
-2 -2 -10z"/>
<path d="M6285 2190 c3 -5 23 -10 43 -9 33 1 34 2 12 9 -36 12 -62 12 -55 0z"/>
<path d="M6415 2150 c27 -12 43 -12 25 0 -8 5 -22 9 -30 9 -10 0 -8 -3 5 -9z"/>
<path d="M6718 2153 c7 -3 16 -2 19 1 4 3 -2 6 -13 5 -11 0 -14 -3 -6 -6z"/>
<path d="M6580 2116 c28 -17 50 -21 35 -7 -6 5 -21 12 -35 15 l-25 7 25 -15z"/>
<path d="M6640 2092 c0 -13 23 -32 38 -32 13 0 217 -80 254 -101 10 -5 24 -9
32 -9 7 0 19 -7 26 -15 13 -16 50 -21 50 -7 0 9 -48 31 -225 100 -55 22 -117
47 -137 56 -21 9 -38 13 -38 8z"/>
<path d="M6310 2064 c60 -27 223 -85 227 -80 4 3 -26 15 -187 75 -65 25 -91
27 -40 5z"/>
<path d="M6570 2046 c0 -2 7 -7 16 -10 8 -3 12 -2 9 4 -6 10 -25 14 -25 6z"/>
<path d="M7335 2000 c-3 -5 -1 -10 4 -10 6 0 11 5 11 10 0 6 -2 10 -4 10 -3 0
-8 -4 -11 -10z"/>
<path d="M6636 1935 c10 -8 26 -14 34 -14 9 0 4 6 -10 14 -33 19 -49 19 -24 0z"/>
<path d="M6755 1930 c27 -12 43 -12 25 0 -8 5 -22 9 -30 9 -10 0 -8 -3 5 -9z"/>
<path d="M6759 1884 c30 -13 66 -27 80 -30 15 -3 -7 9 -47 25 -87 37 -110 40
-33 5z"/>
<path d="M7306 1840 c-26 -39 -57 -75 -70 -80 -18 -7 -23 -14 -19 -29 3 -12 7
-21 10 -21 13 0 55 53 83 105 18 33 37 66 43 73 5 7 7 15 4 18 -3 3 -26 -26
-51 -66z"/>
<path d="M6870 1845 c0 -7 74 -39 110 -49 14 -4 -4 7 -39 24 -68 32 -71 33
-71 25z"/>
<path d="M7018 1778 c5 -5 16 -8 23 -6 8 3 3 7 -10 11 -17 4 -21 3 -13 -5z"/>
<path d="M7070 1760 c20 -13 121 -42 126 -37 4 4 -119 47 -134 47 -4 0 0 -5 8
-10z"/>
<path d="M5720 7397 c-29 -14 -76 -81 -86 -121 l-7 -29 49 7 c90 14 184 68
184 106 0 18 -59 50 -93 50 -12 0 -33 -6 -47 -13z"/>
<path d="M5440 7242 c-68 -34 -103 -128 -62 -165 10 -10 26 -17 36 -17 29 0
95 39 113 68 9 15 32 46 51 69 l33 43 -26 10 c-40 15 -106 12 -145 -8z"/>
<path d="M4633 6521 c-62 -28 -160 -137 -141 -156 2 -2 45 6 96 19 65 16 103
32 130 53 44 36 64 79 42 93 -24 15 -82 11 -127 -9z"/>
<path d="M6149 5962 c-109 -70 -206 -241 -185 -327 15 -60 89 -85 154 -51 59
31 176 192 207 285 15 45 15 53 1 79 -18 35 -33 42 -90 42 -29 0 -56 -9 -87
-28z"/>
<path d="M940 1540 c0 -5 5 -10 11 -10 5 0 7 5 4 10 -3 6 -8 10 -11 10 -2 0
-4 -4 -4 -10z"/>
<path d="M1377 1453 c-14 -13 -6 -33 13 -33 13 0 20 7 20 20 0 19 -20 27 -33
13z"/>
<path d="M630 1270 c0 -5 5 -10 11 -10 5 0 7 5 4 10 -3 6 -8 10 -11 10 -2 0
-4 -4 -4 -10z"/>
<path d="M750 719 c0 -14 5 -19 17 -17 26 5 29 38 4 38 -15 0 -21 -6 -21 -21z"/>
<path d="M1205 620 c3 -5 8 -10 11 -10 2 0 4 5 4 10 0 6 -5 10 -11 10 -5 0 -7
-4 -4 -10z"/>
</g>
</svg>
